<?xml version="1.0"?>
<svg xmlns="http://www.w3.org/2000/svg" preserveAspectRatio="xMidYMid" viewBox="0 0 256 251">
  <path fill="#fff" d="M76.02 64.287a82.3 82.3 0 0 0 37.216 17.077V8.556L128.064 0l14.817 8.556v72.808a82.4 82.4 0 0 0 37.227-17.077l26.921 15.57c-43.782 43.316-114.27 43.316-158.06 0l27.048-15.57zm32.717 185.93c15.613-59.592-19.665-120.64-79.092-136.87v31.152a82.4 82.4 0 0 1 33.413 23.686L0 204.589v17.124l14.828 8.51 63.046-36.404a82.3 82.3 0 0 1 3.814 40.775l27.048 15.628zm117.68-136.87c-59.395 16.267-94.634 77.305-79.023 136.87l26.978-15.582a82.43 82.43 0 0 1 3.814-40.775l63 36.358 14.817-8.556v-17.077l-63.058-36.404a82.5 82.5 0 0 1 33.413-23.686l.058-31.152z"/>
</svg>
